<svg width="28" height="28" viewBox="0 0 28 28" fill="none" xmlns="http://www.w3.org/2000/svg">
<path d="M24.3133 5.37851C23.7174 4.78235 23.0099 4.30943 22.2312 3.98677C21.4525 3.66412 20.6178 3.49805 19.7749 3.49805C18.932 3.49805 18.0974 3.66412 17.3187 3.98677C16.54 4.30943 15.8325 4.78235 15.2366 5.37851L13.9999 6.61518L12.7633 5.37851C11.5596 4.17487 9.92714 3.49867 8.22494 3.49867C6.52273 3.49867 4.89024 4.17487 3.6866 5.37851C2.48296 6.58215 1.80676 8.21464 1.80676 9.91684C1.80676 11.619 2.48296 13.2515 3.6866 14.4552L4.92327 15.6918L13.9999 24.7685L23.0766 15.6918L24.3133 14.4552C24.9094 13.8593 25.3823 13.1518 25.705 12.3731C26.0277 11.5944 26.1937 10.7597 26.1937 9.91684C26.1937 9.07394 26.0277 8.2393 25.705 7.4606C25.3823 6.68189 24.9094 5.97439 24.3133 5.37851V5.37851Z" stroke="#FFC0CB" stroke-width="2.33333" stroke-linecap="round" stroke-linejoin="round"/>
</svg>
